<?xml version="1.0" standalone="no"?>
<!DOCTYPE svg PUBLIC "-//W3C//DTD SVG 20010904//EN"
 "http://www.w3.org/TR/2001/REC-SVG-20010904/DTD/svg10.dtd">
<svg version="1.0" xmlns="http://www.w3.org/2000/svg"
 width="16.000000pt" height="16.000000pt" viewBox="0 0 16.000000 16.000000"
 preserveAspectRatio="xMidYMid meet">
<metadata>
Created by potrace 1.11, written by Peter Selinger 2001-2013
</metadata>
<g transform="translate(0.000000,16.000000) scale(0.005926,-0.005926)"
fill="#000000" stroke="none">
<path d="M2516 2332 c-2 -1 -77 -4 -167 -7 -90 -2 -164 -5 -164 -5 0 -1 -40
-3 -90 -5 -49 -2 -162 -6 -250 -9 -240 -10 -403 -15 -573 -20 -83 -3 -156 -7
-161 -11 -5 -3 -12 -1 -15 3 -3 5 -25 6 -48 3 -55 -8 -782 -6 -868 3 -106 10
-121 13 -133 25 -20 20 -26 12 -15 -21 5 -18 11 -43 13 -55 2 -12 6 -26 9 -31
3 -5 6 -26 8 -46 1 -21 6 -40 11 -43 4 -2 3 -11 -4 -19 -7 -8 -7 -14 -1 -14
10 0 1 -57 -12 -79 -4 -6 0 -12 11 -12 42 -3 108 -1 144 5 40 6 51 -1 55 -39
1 -11 5 -32 8 -47 3 -16 8 -40 11 -55 3 -16 11 -46 17 -68 6 -22 12 -49 13
-60 1 -11 3 -20 4 -20 3 0 5 -10 14 -55 3 -14 11 -47 17 -75 19 -82 20 -89 25
-124 3 -18 7 -37 10 -41 3 -4 7 -25 10 -45 2 -21 7 -45 9 -54 3 -9 7 -32 10
-51 3 -19 8 -46 10 -60 7 -40 18 -122 22 -155 2 -16 6 -55 9 -85 8 -71 12
-360 5 -360 -4 0 -6 -10 -6 -22 -1 -39 -14 -101 -31 -153 -9 -27 -14 -50 -12
-50 2 0 -7 -15 -20 -34 l-24 -33 24 13 c13 7 31 15 39 17 31 7 124 3 208 -9
29 -5 34 2 19 25 -15 22 -36 112 -43 186 -5 51 -5 238 0 288 7 66 17 143 22
166 2 12 7 35 10 51 2 17 10 48 15 70 6 22 12 47 14 55 8 37 61 172 97 244 76
155 207 300 326 361 31 17 60 34 64 40 4 5 8 7 8 3 0 -4 15 -1 34 7 18 8 44
16 57 19 13 2 45 9 71 15 27 6 96 9 165 6 150 -7 163 -8 163 -17 0 -5 8 -8 18
-8 16 0 113 -45 172 -80 28 -17 142 -129 180 -177 23 -29 112 -198 132 -250 4
-13 12 -33 17 -45 5 -13 14 -41 20 -63 5 -22 14 -51 18 -65 4 -14 8 -29 9 -35
9 -40 14 -63 19 -85 6 -26 10 -51 20 -130 3 -25 8 -56 10 -70 9 -51 18 -218
18 -330 l0 -115 109 -1 c60 0 113 -5 116 -10 6 -8 15 -9 46 -5 5 0 2 9 -6 19
-42 50 -118 291 -133 422 -1 14 -5 36 -8 50 -10 43 -29 194 -30 248 -1 17 -4
32 -7 32 -10 0 -21 628 -11 645 3 6 6 21 7 35 4 73 34 193 56 222 7 10 33 22
58 26 44 8 62 8 145 -2 l40 -4 0 131 0 132 -78 0 c-43 0 -80 -1 -81 -3z"/>
<path d="M1461 1393 c-6 -10 -11 -13 -11 -8 0 7 -3 7 -8 0 -4 -5 -36 -35 -72
-65 -70 -58 -178 -165 -223 -221 -35 -42 -147 -211 -148 -221 0 -4 -6 -22 -13
-40 -19 -44 -13 -153 10 -220 11 -29 22 -54 27 -56 4 -2 7 -8 7 -14 0 -25 118
-178 138 -178 6 0 28 28 51 63 64 98 120 179 158 224 29 36 37 41 54 33 17
-10 112 -123 226 -273 l42 -55 59 0 c37 0 59 5 59 12 0 17 13 89 18 106 3 8 7
29 9 45 2 17 8 50 13 75 22 111 -13 278 -83 397 -29 50 -119 143 -138 143 -7
0 -31 16 -54 36 -55 47 -84 116 -85 202 -1 35 -20 43 -36 15z"/>
</g>
</svg>
