<?xml version="1.0" standalone="no"?>
<!DOCTYPE svg PUBLIC "-//W3C//DTD SVG 20010904//EN"
 "http://www.w3.org/TR/2001/REC-SVG-20010904/DTD/svg10.dtd">
<svg version="1.0" xmlns="http://www.w3.org/2000/svg"
 width="16.000000pt" height="16.000000pt" viewBox="0 0 16.000000 16.000000"
 preserveAspectRatio="xMidYMid meet">
<metadata>
Created by potrace 1.11, written by Peter Selinger 2001-2013
</metadata>
<g transform="translate(0.000000,16.000000) scale(0.005926,-0.005926)"
fill="#000000" stroke="none">
<path d="M370 2470 c0 -6 -4 -8 -10 -5 -22 13 -117 -65 -123 -101 -1 -11 -5
-23 -8 -29 -14 -26 4 -135 23 -135 5 0 6 -5 3 -10 -7 -12 24 -42 69 -66 40
-22 111 -26 153 -9 35 15 92 55 77 55 -4 0 2 9 14 20 24 22 25 27 27 112 1 31
-3 55 -7 52 -4 -3 -8 1 -8 10 0 21 -47 74 -84 93 -37 19 -126 28 -126 13z"/>
<path d="M990 2468 c0 -4 -3 -7 -7 -6 -5 1 -24 -6 -44 -15 -49 -24 -91 -106
-88 -171 2 -25 7 -46 12 -46 5 0 7 -5 5 -12 -11 -31 104 -119 145 -113 9 2 17
-1 17 -6 0 -6 6 -7 13 -2 12 8 16 9 54 15 11 2 28 10 37 17 9 7 16 10 16 7 0
-4 14 9 31 29 18 20 29 38 26 42 -3 3 0 11 7 18 11 12 14 81 4 126 -7 31 -59
89 -96 108 -37 19 -132 26 -132 9z"/>
<path d="M1620 2468 c0 -6 -3 -8 -6 -5 -11 11 -81 -33 -95 -59 -7 -13 -16 -24
-20 -24 -5 0 -6 -7 -3 -15 4 -8 2 -15 -3 -15 -6 0 -11 -15 -12 -32 -4 -61 0
-88 11 -88 5 0 7 -4 4 -9 -8 -12 63 -91 93 -103 33 -13 141 -18 141 -7 0 5 6
9 13 9 20 0 84 61 92 88 3 12 10 22 14 22 12 0 4 111 -10 139 -16 31 -83 97
-101 99 -65 9 -118 9 -118 0z"/>
<path d="M2256 2468 c4 -6 3 -8 -4 -4 -23 14 -93 -36 -125 -91 -15 -25 -24
-112 -13 -123 5 -5 7 -10 3 -10 -4 0 0 -14 8 -30 19 -37 74 -92 85 -85 5 3 10
0 12 -6 6 -18 106 -20 139 -3 16 8 29 12 29 9 0 -3 15 9 34 27 18 18 32 36 30
39 -2 3 4 15 14 25 22 24 21 95 -2 150 -17 40 -56 84 -76 84 -6 0 -10 4 -10
10 0 5 -7 6 -17 3 -9 -4 -14 -2 -11 3 4 5 -18 10 -48 11 -38 1 -52 -1 -48 -9z"/>
<path d="M348 1841 c-2 -3 -20 -15 -40 -25 -21 -10 -40 -27 -43 -37 -4 -11
-11 -19 -16 -19 -6 0 -8 -4 -4 -9 3 -5 1 -12 -5 -16 -6 -4 -8 -11 -5 -16 4 -5
2 -9 -3 -9 -16 0 -7 -106 12 -136 28 -43 59 -72 92 -85 31 -13 126 -20 134
-10 3 3 22 15 42 25 21 10 35 23 32 27 -3 5 -1 9 5 9 19 0 45 64 47 115 3 82
-57 173 -116 178 -11 1 -20 5 -20 10 0 9 -108 7 -112 -2z"/>
<path d="M963 1830 c-18 -11 -33 -17 -33 -14 0 3 -13 -9 -30 -27 -16 -18 -27
-36 -24 -41 3 -4 0 -8 -6 -8 -6 0 -9 -4 -5 -9 3 -5 2 -12 -3 -15 -25 -16 2
-166 31 -166 6 0 7 -3 4 -7 -9 -8 74 -64 85 -57 4 3 8 1 8 -4 0 -4 25 -8 55
-8 30 1 55 4 55 9 0 4 7 7 16 7 18 0 100 82 102 102 8 79 8 119 1 124 -5 3 -7
9 -5 13 3 4 -4 17 -14 29 -11 12 -20 26 -20 32 0 5 -6 10 -13 10 -7 0 -19 9
-26 19 -8 11 -20 17 -27 14 -6 -2 -15 0 -19 6 -11 19 -97 13 -132 -9z"/>
<path d="M1603 1837 c-49 -19 -119 -89 -108 -107 4 -6 1 -10 -5 -10 -6 0 -9
-4 -5 -9 3 -5 2 -12 -3 -15 -9 -6 -8 -47 2 -64 4 -7 5 -12 1 -12 -6 0 28 -67
48 -92 8 -10 19 -18 26 -18 6 0 11 -4 11 -10 0 -5 3 -9 8 -8 4 1 16 -2 27 -8
36 -19 155 -5 155 18 0 5 3 7 8 5 4 -3 21 11 39 29 18 19 31 34 28 34 -2 0 2
15 10 33 17 42 10 111 -16 153 -21 34 -70 75 -99 82 -41 11 -98 10 -127 -1z"/>
<path d="M2245 1840 c-4 -6 -11 -8 -16 -5 -5 3 -14 1 -21 -4 -43 -34 -70 -61
-63 -61 5 0 1 -6 -9 -13 -11 -8 -19 -32 -23 -67 -3 -30 -7 -57 -9 -59 -6 -6
28 -63 56 -94 39 -45 87 -65 150 -61 30 1 56 7 58 13 2 6 8 9 12 6 11 -7 80
64 80 82 0 7 4 13 9 13 6 0 10 8 10 18 0 9 1 31 2 47 1 17 -1 45 -6 63 -9 39
-77 112 -105 112 -11 0 -20 5 -20 10 0 13 -97 13 -105 0z"/>
<path d="M388 1219 c-15 -4 -29 -4 -32 -1 -3 3 -6 0 -6 -6 0 -7 -4 -11 -9 -9
-5 1 -27 -11 -49 -28 -40 -30 -69 -85 -56 -106 4 -8 3 -9 -4 -5 -8 5 -12 -3
-12 -23 0 -18 5 -31 13 -31 7 0 8 -3 2 -8 -13 -9 -17 -32 -6 -32 5 0 14 -14
21 -31 7 -17 32 -43 54 -57 23 -15 43 -29 46 -32 9 -9 110 -6 110 3 0 4 4 6 9
3 5 -3 27 8 49 24 42 30 67 68 76 111 2 13 5 29 6 34 1 6 1 12 0 15 -1 3 -4
19 -6 35 -14 85 -128 166 -206 144z"/>
<path d="M1050 1220 c0 -4 -9 -6 -19 -3 -29 7 -81 -13 -120 -47 -18 -17 -30
-30 -25 -30 5 0 0 -7 -10 -15 -11 -8 -16 -15 -12 -15 5 0 4 -6 -2 -12 -14 -17
-9 -117 8 -148 19 -37 58 -73 97 -91 39 -18 126 -17 149 2 8 6 14 8 14 5 0
-14 71 65 82 91 13 34 18 133 6 133 -4 0 -8 8 -8 18 0 17 -27 51 -66 82 -23
19 -94 41 -94 30z"/>
<path d="M1620 1213 c-25 -7 -54 -21 -65 -31 -31 -26 -72 -85 -70 -102 0 -8
-2 -27 -6 -42 -4 -15 -3 -30 2 -34 5 -3 7 -10 4 -15 -4 -5 -2 -9 4 -9 6 0 8
-6 5 -13 -2 -7 5 -22 16 -34 11 -12 20 -26 20 -31 0 -5 18 -17 40 -28 22 -10
40 -21 40 -24 0 -9 103 -3 130 8 34 13 89 67 101 99 16 44 18 106 3 136 -8 15
-12 27 -9 27 11 0 -51 63 -75 75 -53 27 -93 33 -140 18z"/>
<path d="M2260 1219 c0 -7 -3 -10 -6 -6 -4 3 -19 0 -34 -8 -32 -16 -103 -85
-96 -93 3 -2 0 -14 -6 -26 -6 -11 -11 -39 -9 -61 7 -134 152 -222 268 -162 28
15 89 67 78 67 -3 0 1 10 10 23 8 13 12 27 8 30 -3 4 -2 7 3 7 5 0 9 17 8 38
-2 46 -15 104 -22 97 -3 -3 -10 5 -16 17 -18 35 -83 74 -129 77 -22 1 -44 4
-49 7 -4 3 -8 0 -8 -7z"/>
<path d="M380 590 c-60 -11 -107 -46 -136 -103 -8 -15 -12 -32 -9 -37 3 -6 2
-10 -3 -10 -12 0 -12 -72 1 -87 5 -7 6 -13 3 -13 -11 0 34 -62 64 -87 14 -13
33 -23 42 -23 9 0 19 -3 22 -8 2 -4 22 -7 43 -5 65 3 97 16 134 53 26 26 65
90 54 90 -3 0 -1 9 5 20 6 11 7 20 3 20 -4 0 -9 16 -9 35 -3 91 -115 172 -214
155z"/>
<path d="M1644 590 c-83 -12 -149 -75 -161 -154 -3 -17 -6 -33 -8 -35 -2 -2 5
-26 15 -54 18 -46 80 -120 98 -115 4 1 16 -2 27 -8 43 -23 130 -2 181 44 53
46 75 147 46 207 -20 40 -58 85 -66 78 -3 -4 -6 -2 -6 4 0 21 -76 40 -126 33z"/>
<path d="M2260 591 c-14 -1 -38 -12 -55 -24 -30 -20 -88 -77 -79 -77 3 0 0 -9
-6 -19 -10 -20 -14 -82 -8 -111 11 -43 74 -124 90 -114 4 3 8 1 8 -5 0 -5 15
-13 33 -17 46 -11 107 -11 107 0 0 5 3 7 6 3 3 -3 11 -2 18 3 58 47 86 74 86
86 0 8 6 17 13 20 17 6 14 106 -4 142 -27 54 -92 110 -121 104 -5 -1 -8 1 -8
6 0 7 -38 9 -80 3z"/>
<path d="M948 567 c-49 -30 -94 -92 -90 -127 0 -3 -4 -13 -9 -22 -6 -11 -6
-18 -1 -18 5 0 7 -11 4 -25 -2 -15 0 -25 7 -25 6 0 10 -3 10 -7 -3 -21 4 -34
41 -73 22 -23 40 -40 40 -36 0 4 10 1 23 -5 27 -15 107 -19 107 -5 0 5 3 7 6
3 18 -17 124 68 124 100 0 7 3 13 8 13 11 0 7 112 -6 140 -15 33 -47 70 -61
70 -7 0 -14 7 -18 16 -3 8 -12 13 -19 10 -8 -3 -14 -1 -14 4 0 20 -113 10
-152 -13z"/>
</g>
</svg>
