<?xml version="1.0" encoding="utf-8"?>
<!-- Generator: Adobe Illustrator 16.0.0, SVG Export Plug-In . SVG Version: 6.00 Build 0)  -->
<!DOCTYPE svg PUBLIC "-//W3C//DTD SVG 1.1//EN" "http://www.w3.org/Graphics/SVG/1.1/DTD/svg11.dtd">
<svg version="1.1" id="Layer_1" xmlns="http://www.w3.org/2000/svg" xmlns:xlink="http://www.w3.org/1999/xlink" x="0px" y="0px"
	 width="792px" height="504px" viewBox="0 0 792 504" enable-background="new 0 0 792 504" xml:space="preserve">
<title>Artboard 3</title>
<path d="M379.843,327.199l21.64,21.641c4.746,4.955,11.354,7.69,18.213,7.54h25.606v21.641c0,16.224,13.152,29.376,29.376,29.376
	l0,0h21.641v25.557c0.021,6.74,2.674,13.205,7.393,18.018l16.989,16.989c4.506,4.466,10.597,6.966,16.94,6.952h67.467
	c11.616-0.027,21.025-9.437,21.053-21.053l0,0v-67.467c0.019-6.394-2.52-12.528-7.051-17.038L478.399,228.643
	c29.408-83.816-14.699-175.603-98.517-205.01C321.531,3.16,256.609,17.955,212.89,61.689c-62.82,62.799-62.838,164.633-0.04,227.453
	C256.569,332.877,321.491,347.673,379.843,327.199z M233.698,82.399c51.303-51.371,134.538-51.426,185.909-0.122
	c37.92,37.87,49.055,94.966,28.145,144.31c-2.332,5.506-1.093,11.877,3.133,16.108l145.853,145.901v56.94h-56.94L525.45,431.19
	v-34.614c0-10.438-8.461-18.898-18.898-18.898l0,0l0,0h-31.873v-31.775c0-10.438-8.461-18.898-18.898-18.898l0,0h-34.565
	l-27.32-27.32c-4.23-4.226-10.601-5.465-16.107-3.133c-66.867,28.282-144-2.998-172.282-69.864
	c-20.856-49.31-9.724-106.341,28.144-144.189L233.698,82.399z M295.191,197.896c29.744,0,53.856-24.112,53.856-53.856
	c0-29.744-24.112-53.856-53.856-53.856c-29.744,0-53.856,24.112-53.856,53.856C241.335,173.784,265.447,197.896,295.191,197.896z
	 M295.191,119.952c13.52,0,24.48,10.96,24.48,24.48s-10.96,24.48-24.48,24.48s-24.48-10.96-24.48-24.48
	c-0.027-13.52,10.911-24.502,24.431-24.529c0.016,0,0.032,0,0.049,0V119.952z"/>
<text transform="matrix(1 0 0 1 151.1992 563.0391)" font-family="'HelveticaNeue-Bold'" font-size="24.48">Created by Gregor Cresnar</text>
<text transform="matrix(1 0 0 1 151.1992 587.5195)" font-family="'HelveticaNeue-Bold'" font-size="24.48">from the Noun Project</text>
</svg>
