<?xml version="1.0" encoding="utf-8"?>
<!-- Generator: Adobe Illustrator 16.0.0, SVG Export Plug-In . SVG Version: 6.00 Build 0)  -->
<!DOCTYPE svg PUBLIC "-//W3C//DTD SVG 1.1//EN" "http://www.w3.org/Graphics/SVG/1.1/DTD/svg11.dtd">
<svg version="1.1" id="Layer_1" xmlns="http://www.w3.org/2000/svg" xmlns:xlink="http://www.w3.org/1999/xlink" x="0px" y="0px"
	 width="792px" height="504px" viewBox="0 0 792 504" enable-background="new 0 0 792 504" xml:space="preserve">
<path d="M480.49,364.934c-7.271,6.761-16.764,11.848-27.54,14.546c-3.927,0.988-6.311,4.959-5.322,8.871
	c0.999,3.912,4.984,6.286,8.916,5.298l0,0c13.009-3.261,24.729-9.454,33.969-18.037c2.957-2.757,3.123-7.373,0.357-10.32
	C488.099,362.343,483.447,362.182,480.49,364.934z"/>
<path d="M578.058,241.441h-15.53c-6.1-15.878-15.188-30.59-26.683-43.687l17.009-49.851c1.233-3.628-0.554-7.589-4.104-9.077
	c-6.8-2.854-13.963-4.186-21.097-4.186c-17.547,0.039-34.752,7.936-48.274,20.857c-10.419-5.043-21.483-9.249-33.043-12.554
	c6.845-11.104,10.864-24.112,10.874-38.091c-0.01-40.348-32.887-73.048-73.44-73.053c-40.563,0.005-73.44,32.706-73.44,73.053
	c0,14.576,4.333,28.113,11.73,39.511c-24.759,7.667-47.08,19.56-65.562,34.796c-12.255,10.091-22.83,21.67-31.339,34.38
	c-6.531-0.103-12.318-2.331-16.294-5.64c-4.098-3.427-6.233-7.657-6.243-12.167c0-4.035-3.29-7.305-7.344-7.305
	c-4.054,0-7.344,3.271-7.344,7.305c-0.01,9.375,4.642,17.723,11.525,23.393c4.862,4.024,10.894,6.834,17.533,8.171
	c-9.689,18.639-15.119,39.236-15.109,60.911c-0.01,42.022,20.348,79.971,52.745,107.438l-7.295,29.342v-0.015
	c-0.392,1.547-0.583,3.124-0.583,4.676c0.01,4.392,1.503,8.559,4.093,11.912c2.59,3.354,6.35,5.924,10.796,7.016l35.144,8.651
	c1.557,0.387,3.138,0.568,4.686,0.568c4.416,0,8.607-1.493,11.971-4.069c3.368-2.57,5.958-6.306,7.055-10.722l2.609-10.521
	c19.829,6.026,41.214,9.312,63.516,9.312c22.302,0,43.683-3.31,63.506-9.336L452.75,443c1.092,4.416,3.682,8.156,7.045,10.727
	c3.363,2.58,7.555,4.069,11.976,4.069c1.547,0,3.124-0.182,4.686-0.568l35.144-8.651c4.445-1.092,8.196-3.667,10.781-7.016
	c2.59-3.354,4.088-7.511,4.093-11.912c0-1.532-0.182-3.1-0.568-4.661l-7.324-29.449c21.092-17.93,37.103-40.157,45.67-65.195h13.807
	c14.36-0.029,25.993-11.594,26.018-25.88v-37.146C604.046,253.04,592.413,241.466,578.058,241.441z M342.217,63.525
	c10.659-10.585,25.293-17.111,41.547-17.116c16.235,0.005,30.884,6.531,41.533,17.116c10.648,10.6,17.209,25.17,17.219,41.327
	c-0.01,16.162-6.57,30.723-17.219,41.322c-10.654,10.585-25.298,17.112-41.533,17.117c-16.254-0.005-30.894-6.531-41.547-17.117
	c-10.644-10.6-17.205-25.165-17.205-41.322C325.013,88.696,331.574,74.13,342.217,63.525z M306.232,439.494
	c-0.279,1.102-0.901,1.993-1.758,2.664c-0.872,0.665-1.939,1.037-3.011,1.032l-1.155-0.137l-35.144-8.651
	c-1.121-0.279-2.017-0.891-2.688-1.748c-0.671-0.856-1.043-1.929-1.033-2.991l0.132-1.136l0.01-0.02l5.728-23.041
	c12.632,8.892,26.688,16.387,41.856,22.209L306.232,439.494z M510.737,432.649c-0.67,0.867-1.557,1.479-2.673,1.748l-35.134,8.651
	l-1.16,0.137c-1.077,0.005-2.149-0.367-3.016-1.027c-0.862-0.671-1.474-1.558-1.753-2.659l-2.938-11.828
	c13.204-5.077,25.591-11.394,36.906-18.82c1.688-1.111,3.275-2.336,4.92-3.496l5.758,23.144l0.132,1.155
	C511.785,430.721,511.408,431.788,510.737,432.649z M589.387,304.473c0,3.094-1.263,5.875-3.339,7.951
	c-2.086,2.065-4.886,3.314-7.995,3.319h-19.153c-3.261,0-6.125,2.13-7.045,5.238c-8.911,30.091-29.939,56.617-58.968,75.678
	c-29.023,19.046-65.979,30.531-106.272,30.526c-47.334,0.01-90.062-15.843-120.745-41.16
	c-30.708-25.356-49.293-59.868-49.303-97.812c0.01-37.939,18.595-72.446,49.303-97.803c18.282-15.084,40.882-26.737,66.145-33.743
	c4.7,4.637,10.042,8.627,15.853,11.878c-7.574,1.239-15.065,2.742-22.375,4.749c-3.912,1.077-6.208,5.102-5.126,8.989
	c1.092,3.887,5.136,6.169,9.048,5.092c17.743-4.876,36.524-7.344,55.765-7.339c18.057-0.005,36.51,2.164,54.904,6.541
	c3.945,0.94,7.906-1.479,8.852-5.405c0.945-3.926-1.483-7.863-5.435-8.808c-7.677-1.826-15.378-3.183-23.061-4.289
	c5.954-3.427,11.374-7.638,16.128-12.529c14.561,3.652,28.343,8.725,40.926,15.251c2.952,1.533,6.585,0.886,8.822-1.557
	c11.564-12.676,27.061-20.035,41.342-19.991c3.011,0,5.979,0.353,8.882,1.004l-15.966,46.801c-0.867,2.536-0.274,5.332,1.557,7.3
	c12.847,13.851,22.536,29.67,28.328,46.723c1.004,2.967,3.805,4.969,6.952,4.969h20.646c3.109,0.005,5.909,1.253,7.995,3.32
	c2.076,2.076,3.339,4.862,3.339,7.956v37.151H589.387z"/>
<ellipse cx="500.662" cy="237.045" rx="10.271" ry="10.213"/>
<path d="M373.052,125c-1.689-1.489-2.458-3.07-2.511-5.547c0-4.034-3.286-7.305-7.344-7.305c-4.044,0-7.344,3.271-7.344,7.305
	c-0.049,6.414,2.781,12.612,7.707,16.695c3.481,2.933,7.853,4.773,12.715,5.616v0.504c0,4.034,3.29,7.305,7.344,7.305
	c4.054,0,7.344-3.271,7.344-7.305v-0.676c3.736-0.646,7.349-1.758,10.664-3.79c2.863-1.772,5.449-4.323,7.177-7.525
	c1.743-3.197,2.585-6.923,2.575-10.825c0.01-4.054-0.886-7.863-2.668-11.065c-1.537-2.801-3.691-5.043-5.992-6.722
	c-3.775-2.751-7.854-4.191-11.756-5.337V79.154c1.327,0.484,2.434,1.023,3.163,1.596c0.955,0.744,1.527,1.483,1.929,2.311
	c0.396,0.828,0.632,1.787,0.637,3.031c0,4.034,3.29,7.305,7.344,7.305c4.049,0,7.344-3.271,7.344-7.305
	c0-3.197-0.66-6.409-2.08-9.332c-2.091-4.406-5.86-7.985-10.497-10.213c-2.385-1.155-5.014-1.988-7.844-2.541v-0.553
	c0-4.034-3.29-7.305-7.344-7.305c-4.054,0-7.344,3.271-7.344,7.305v0.27c-1.973,0.333-3.819,0.822-5.547,1.479
	c-5.151,1.929-9.072,5.327-11.462,9.146c-2.409,3.833-3.402,7.951-3.412,11.746c-0.015,3.877,0.95,7.604,2.839,10.639
	c1.64,2.658,3.854,4.69,6.149,6.184c3.731,2.409,7.652,3.657,11.432,4.695v19.138C374.918,126.268,373.831,125.661,373.052,125z
	 M390.962,111.82c0.495,0.21,1.058,0.406,1.474,0.636c1.66,0.881,2.595,1.733,3.183,2.61c0.573,0.901,1.048,2.017,1.072,4.387
	c-0.01,1.929-0.372,3.065-0.813,3.882c-0.333,0.612-0.739,1.102-1.356,1.601c-0.759,0.607-2.002,1.19-3.56,1.674V111.82z
	 M372.475,90.41c-0.759-0.578-1.121-1.033-1.405-1.572c-0.274-0.543-0.519-1.292-0.528-2.742c0-1.64,0.631-3.687,2.12-5.175
	c0.759-0.769,1.758-1.483,3.29-2.066c0.103-0.039,0.226-0.073,0.323-0.103v13.552C374.604,91.683,373.268,91.036,372.475,90.41z"/>
<text transform="matrix(1 0 0 1 151.1992 563.0391)" font-family="'HelveticaNeue-Bold'" font-size="24.48">Created by Tomas Knopp</text>
<text transform="matrix(1 0 0 1 151.1992 587.5195)" font-family="'HelveticaNeue-Bold'" font-size="24.48">from the Noun Project</text>
</svg>
