<?xml version="1.0" encoding="utf-8"?>
<!-- Generator: Adobe Illustrator 16.0.0, SVG Export Plug-In . SVG Version: 6.00 Build 0)  -->
<!DOCTYPE svg PUBLIC "-//W3C//DTD SVG 1.1//EN" "http://www.w3.org/Graphics/SVG/1.1/DTD/svg11.dtd">
<svg version="1.1" id="Layer_1" xmlns="http://www.w3.org/2000/svg" xmlns:xlink="http://www.w3.org/1999/xlink" x="0px" y="0px"
	 width="792px" height="504px" viewBox="0 0 792 504" enable-background="new 0 0 792 504" xml:space="preserve">
<g>
	<path d="M475.315,66.585c29.376,0,62.179,16.646,85.19,43.085c29.376,34.272,38.188,64.138,27.907,96.941
		c-11.261,36.72-46.513,75.398-75.889,104.774L395.021,419.587L277.517,311.386c-43.574-43.575-65.606-74.419-73.929-103.306
		c-5.875-20.074-9.303-52.387,26.928-99.389c20.563-26.438,50.429-42.106,80.294-42.106c23.99,0,46.512,9.792,66.096,29.376
		c4.896,4.896,11.261,7.344,18.115,7.344c7.344,0,14.198-2.938,18.605-8.323C431.251,75.888,451.814,66.585,475.315,66.585
		 M475.315,42.105c-27.907,0-55.814,10.771-79.315,36.72c0,0-0.49,0.49-0.979,0.49c-0.49,0-0.49,0-0.979-0.49
		c-25.949-25.949-55.325-36.72-83.232-36.72c-39.168,0-75.888,21.053-99.389,51.408c-69.523,89.597-30.845,155.203,48.96,235.497
		l134.15,123.38l134.64-123.869c79.805-79.805,123.38-149.817,49.45-235.498C552.183,62.669,513.993,42.105,475.315,42.105
		L475.315,42.105z"/>
</g>
<g>
	<path d="M478.253,96.451c23.501,0,47.001,12.729,63.158,31.334c22.032,25.459,26.928,48.47,20.563,71.481
		c-6.854,23.991-23.501,18.115-17.137,0.979c8.324-22.032,2.448-40.637-15.667-61.69c-13.708-16.157-33.292-25.949-50.918-25.949
		c-13.22,0-24.97,5.386-35.251,15.667c-12.24,12.24-19.584-2.938-11.261-11.261C456.221,91.555,478.253,96.451,478.253,96.451z"/>
</g>
<text transform="matrix(1 0 0 1 151.1992 563.0391)" font-family="'HelveticaNeue-Bold'" font-size="24.48">Created by Iconic</text>
<text transform="matrix(1 0 0 1 151.1992 587.5195)" font-family="'HelveticaNeue-Bold'" font-size="24.48">from the Noun Project</text>
</svg>
