<svg xmlns="http://www.w3.org/2000/svg" xmlns:xlink="http://www.w3.org/1999/xlink" version="1.1" x="0px" y="0px" viewBox="0 0 100 125" style="enable-background:new 0 0 100 100;" xml:space="preserve"><g><path d="M66.2,13.6c6,0,12.7,3.4,17.4,8.8c6,7,7.8,13.1,5.7,19.8c-2.3,7.5-9.5,15.4-15.5,21.4l-24,22.1L25.8,63.6   c-8.9-8.9-13.4-15.2-15.1-21.1c-1.2-4.1-1.9-10.7,5.5-20.3c4.2-5.4,10.3-8.6,16.4-8.6c4.9,0,9.5,2,13.5,6c1,1,2.3,1.5,3.7,1.5   c1.5,0,2.9-0.6,3.8-1.7C57.2,15.5,61.4,13.6,66.2,13.6 M66.2,8.6c-5.7,0-11.4,2.2-16.2,7.5c0,0-0.1,0.1-0.2,0.1   c-0.1,0-0.1,0-0.2-0.1c-5.3-5.3-11.3-7.5-17-7.5c-8,0-15.5,4.3-20.3,10.5C-1.9,37.4,6,50.8,22.3,67.2l27.4,25.2l27.5-25.3   c16.3-16.3,25.2-30.6,10.1-48.1C81.9,12.8,74.1,8.6,66.2,8.6L66.2,8.6z"/></g><g><path d="M66.8,19.7c4.8,0,9.6,2.6,12.9,6.4c4.5,5.2,5.5,9.9,4.2,14.6c-1.4,4.9-4.8,3.7-3.5,0.2c1.7-4.5,0.5-8.3-3.2-12.6   c-2.8-3.3-6.8-5.3-10.4-5.3c-2.7,0-5.1,1.1-7.2,3.2c-2.5,2.5-4-0.6-2.3-2.3C62.3,18.7,66.8,19.7,66.8,19.7z"/></g><text x="0" y="115" fill="#000000" font-size="5px" font-weight="bold" font-family="'Helvetica Neue', Helvetica, Arial-Unicode, Arial, Sans-serif">Created by Iconic</text><text x="0" y="120" fill="#000000" font-size="5px" font-weight="bold" font-family="'Helvetica Neue', Helvetica, Arial-Unicode, Arial, Sans-serif">from the Noun Project</text></svg>