<?xml version="1.0" encoding="utf-8"?>
<!-- Generator: Adobe Illustrator 16.0.0, SVG Export Plug-In . SVG Version: 6.00 Build 0)  -->
<!DOCTYPE svg PUBLIC "-//W3C//DTD SVG 1.1//EN" "http://www.w3.org/Graphics/SVG/1.1/DTD/svg11.dtd">
<svg version="1.1" id="Layer_1" xmlns="http://www.w3.org/2000/svg" xmlns:xlink="http://www.w3.org/1999/xlink" x="0px" y="0px"
	 width="792px" height="504px" viewBox="0 -0.22 792 504" enable-background="new 0 -0.22 792 504" xml:space="preserve">
<g>
	<g>
		<g>
			<path d="M366.085,459.985h-38.953c-4.5,0-8.152-3.647-8.152-8.152v-55.021c0-4.5,3.652-8.147,8.152-8.147h38.953
				c4.5,0,8.147,3.647,8.147,8.147v55.016C374.232,456.338,370.585,459.985,366.085,459.985z M335.28,443.691h22.654v-38.728H335.28
				V443.691z"/>
		</g>
	</g>
	<g>
		<g>
			<path d="M366.085,349.654h-38.953c-4.5,0-8.152-3.648-8.152-8.143v-55.026c0-4.499,3.652-8.151,8.152-8.151h38.953
				c4.5,0,8.147,3.652,8.147,8.151v55.021C374.232,346.001,370.585,349.654,366.085,349.654z M335.28,333.355h22.654v-38.723H335.28
				V333.355z"/>
		</g>
	</g>
	<g>
		<g>
			<path d="M366.085,239.317h-38.953c-4.5,0-8.152-3.647-8.152-8.146v-55.017c0-4.5,3.652-8.147,8.152-8.147h38.953
				c4.5,0,8.147,3.647,8.147,8.147v55.017C374.232,235.67,370.585,239.317,366.085,239.317z M335.28,223.023h22.654v-38.723H335.28
				V223.023z"/>
		</g>
	</g>
	<g>
		<g>
			<path d="M455.761,349.654h-38.953c-4.499,0-8.146-3.648-8.146-8.143v-55.026c0-4.499,3.647-8.151,8.146-8.151h38.953
				c4.499,0,8.146,3.652,8.146,8.151v55.021C463.907,346.001,460.26,349.654,455.761,349.654z M424.955,333.355h22.658v-38.723
				h-22.658V333.355z"/>
		</g>
	</g>
	<g>
		<g>
			<path d="M455.761,239.317h-38.953c-4.499,0-8.146-3.647-8.146-8.146v-55.017c0-4.5,3.647-8.147,8.146-8.147h38.953
				c4.499,0,8.146,3.647,8.146,8.147v55.017C463.907,235.67,460.26,239.317,455.761,239.317z M424.955,223.023h22.658v-38.723
				h-22.658V223.023z"/>
		</g>
	</g>
	<g>
		<path d="M320.078,71.101c-4.5,0-8.147-3.647-8.147-8.146V16.016c0-4.499,3.647-8.146,8.147-8.146h36.931
			c4.504,0,8.152,3.647,8.152,8.146v14.262c0,4.5-3.647,8.147-8.152,8.147c-4.495,0-8.147-3.647-8.147-8.147v-6.114h-20.637v38.791
			C328.229,67.448,324.577,71.101,320.078,71.101z"/>
	</g>
	<g>
		<path d="M500.823,131.791H286.354c-3.447,0-6.512-2.164-7.672-5.404c-1.161-3.241-0.157-6.854,2.507-9.038l107.237-87.928
			c3.001-2.463,7.325-2.463,10.331,0l107.231,87.923c2.659,2.184,3.662,5.802,2.507,9.038
			C507.335,129.627,504.266,131.791,500.823,131.791z M309.14,115.492h168.897l-84.451-69.233L309.14,115.492z"/>
	</g>
	<g>
		<path d="M386.977,497.88H288.18c-4.5,0-8.147-3.647-8.147-8.146V151.058c0-4.5,3.647-8.147,8.147-8.147s8.147,3.647,8.147,8.147
			v330.528h90.649c4.504,0,8.152,3.648,8.152,8.147S391.481,497.88,386.977,497.88z"/>
	</g>
	<g>
		<path d="M502.312,497.88h-46.551c-4.5,0-8.147-3.647-8.147-8.146v-85.103h-22.658v85.103c0,4.499-3.647,8.146-8.147,8.146
			c-4.499,0-8.146-3.647-8.146-8.146v-93.249c0-4.5,3.647-8.147,8.146-8.147h38.953c4.499,0,8.146,3.647,8.146,8.147v85.102h30.258
			V151.058c0-4.5,3.647-8.147,8.146-8.147c4.5,0,8.147,3.647,8.147,8.147v338.676C510.459,494.232,506.812,497.88,502.312,497.88z"
			/>
	</g>
</g>
<text transform="matrix(1 0 0 1 151.1992 563.0391)" font-family="'HelveticaNeue-Bold'" font-size="24.48">Created by Mikael Westman</text>
<text transform="matrix(1 0 0 1 151.1992 587.5195)" font-family="'HelveticaNeue-Bold'" font-size="24.48">from the Noun Project</text>
</svg>
