<?xml version="1.0" standalone="no"?>
<!DOCTYPE svg PUBLIC "-//W3C//DTD SVG 20010904//EN"
 "http://www.w3.org/TR/2001/REC-SVG-20010904/DTD/svg10.dtd">
<svg version="1.0" xmlns="http://www.w3.org/2000/svg"
 width="648.000000pt" height="648.000000pt" viewBox="0 0 648.000000 648.000000"
 preserveAspectRatio="xMidYMid meet">
<metadata>
Created by potrace 1.11, written by Peter Selinger 2001-2013
</metadata>
<g transform="translate(0.000000,648.000000) scale(0.100000,-0.100000)"
fill="#000000" stroke="none">
<path d="M3000 6119 c-129 -93 -372 -267 -540 -388 -168 -120 -546 -390 -840
-601 -829 -594 -856 -614 -1002 -718 -76 -53 -136 -102 -134 -108 5 -14 183
-264 201 -283 11 -11 35 3 150 85 75 55 146 106 158 114 30 21 918 656 942
674 19 14 274 196 365 261 25 18 246 176 492 352 l447 321 28 -19 c27 -18 268
-190 288 -206 6 -4 129 -93 275 -197 519 -372 1256 -899 1295 -928 39 -28 130
-94 170 -122 11 -8 125 -89 254 -181 193 -138 236 -165 246 -153 20 20 195
267 200 281 4 9 -187 153 -408 307 -27 19 -647 462 -1165 834 -215 154 -421
301 -456 326 -35 25 -211 151 -391 280 -181 129 -331 236 -334 237 -3 1 -112
-75 -241 -168z"/>
<path d="M3164 5207 c-39 -29 -82 -60 -95 -70 -13 -10 -118 -85 -234 -168
-115 -84 -264 -191 -330 -239 -66 -48 -331 -239 -590 -425 -259 -186 -563
-406 -678 -489 l-207 -150 0 -1688 0 -1688 2210 0 2210 0 0 1688 0 1688 -102
74 c-57 41 -116 84 -133 96 -38 26 -487 350 -500 361 -5 4 -48 35 -95 69 -156
111 -454 326 -505 364 -75 55 -578 418 -659 474 -39 28 -75 54 -81 58 -18 15
-135 98 -137 98 -2 -1 -35 -24 -74 -53z m210 -505 c67 -49 162 -117 211 -152
50 -36 102 -73 116 -85 14 -11 35 -26 45 -33 10 -7 84 -60 164 -118 80 -57
175 -126 212 -152 38 -26 68 -51 68 -55 0 -9 -2779 -2793 -2781 -2786 -1 2 -2
487 -3 1077 l-1 1074 70 52 c38 29 160 117 270 196 110 79 319 230 465 335
146 105 420 303 610 440 190 136 359 258 375 271 17 13 36 23 44 24 8 0 68
-40 135 -88z m1421 -1025 l280 -202 0 -698 0 -699 -703 -701 c-386 -386 -705
-704 -708 -707 -3 -3 -513 -5 -1133 -5 l-1127 0 1 60 2 60 1544 1546 c849 851
1549 1547 1554 1548 6 0 136 -91 290 -202z m280 -2575 l0 -437 -430 1 c-236 1
-434 2 -439 3 -9 1 856 871 865 871 2 0 4 -197 4 -438z"/>
</g>
</svg>
